<?xml version="1.0" encoding="utf-8"?>
<!-- Generator: Adobe Illustrator 24.0.1, SVG Export Plug-In . SVG Version: 6.00 Build 0)  -->
<svg version="1.1" id="Layer_1" xmlns="http://www.w3.org/2000/svg" xmlns:xlink="http://www.w3.org/1999/xlink" x="0px" y="0px"
	 viewBox="0 0 1400 1400" style="enable-background:new 0 0 1400 1400;" xml:space="preserve">
<style type="text/css">
	.st0{fill:#231F20;}
	.st1{fill:#FFFFFF;}
	.st2{fill:#BABCBE;}
	.st3{fill:none;stroke:#FFFFFF;stroke-width:12;stroke-miterlimit:10;}
	.st4{fill:#059393;}
	.st5{fill:#231F20;stroke:#231F20;stroke-miterlimit:10;}
</style>
<path class="st0" d="M372.6,655.7h-20.2H345v173c0,4.6,1.5,8.8,4.1,12.2l48.7-185.2h-5H372.6z"/>
<path class="st2" d="M372.6,641.9h20.2h5.1h2.5c0.3,0,0.7,0,1,0l44.3-168.5h-80.4c-11.2,0-20.3,9.1-20.3,20.3v148.3h7.3H372.6z"/>
<path class="st4" d="M449.5,512.8L363.9,839h171.4L449.5,512.8z M449.6,661.5c-6.2,0-11.2-5-11.2-11.2s5-11.2,11.2-11.2
	c6.2,0,11.2,5,11.2,11.2S455.8,661.5,449.6,661.5z"/>
<g>
	<g>
		<path class="st0" d="M616.3,634.9l-1.5,7.8h-38.5l-4.7,22h35.9l-1.6,7.8h-36l-5,23.9h39l-1.7,7.8H554l14.6-69.2H616.3z"/>
		<path class="st0" d="M602.5,704.6h-49.2l14.8-70.2h48.7l-1.7,8.8h-38.5l-4.4,21h35.8l-1.8,8.8h-36l-4.8,22.9h39L602.5,704.6z
			 M554.6,703.6h47.1l1.5-6.8h-38.9l5.2-24.9h35.9l1.4-6.8H571l4.9-23h38.5l1.4-6.8H569L554.6,703.6z"/>
	</g>
	<g>
		<path class="st0" d="M630.3,654l-1.8,7.5l0.2,0.2c2.1-2.7,4.7-4.9,7.7-6.4c3-1.6,6.2-2.4,9.7-2.4c3.2,0,5.9,0.7,8.1,2
			c2.3,1.4,3.7,3.7,4.5,7c1.9-2.7,4.4-4.9,7.5-6.5c3.1-1.6,6.3-2.5,9.6-2.5c1.7,0,3.5,0.2,5.1,0.6c1.7,0.4,3.2,1.1,4.5,1.9
			c1.3,0.9,2.4,2,3.1,3.4c0.8,1.4,1.2,3.2,1.2,5.2c0,1.5-0.2,3.2-0.5,5c-0.3,1.9-0.6,3.5-1,4.9l-6.3,30h-8.2l7-31.8
			c0.2-0.8,0.4-1.7,0.5-2.8c0.2-1.1,0.2-2,0.2-2.7c0-1.9-0.7-3.6-2.2-4.8c-1.5-1.3-3.3-1.9-5.5-1.9c-1.2,0-2.3,0.2-3.5,0.6
			c-1.2,0.4-2.3,0.9-3.4,1.5c-1.1,0.6-2.1,1.3-3.1,2.2c-1,0.8-1.8,1.7-2.5,2.6c-1.4,1.5-2.4,3.2-3,5.1c-0.6,1.9-1.2,4-1.6,6.1
			l-5.5,25.9h-8.2l6-28.6c0.5-1.9,0.8-3.7,1.1-5.4c0.3-1.7,0.4-2.8,0.4-3.4c0-2.1-0.6-3.7-1.8-4.8c-1.2-1.2-2.9-1.7-5.2-1.7
			c-2.3,0-4.5,0.6-6.7,1.9c-2.2,1.3-4.1,2.8-5.6,4.5c-1.7,1.7-2.9,3.4-3.6,5.1c-0.6,1.7-1.2,3.8-1.7,6.2l-5.6,26.3h-8.1l10.6-50.1
			H630.3z"/>
		<path class="st0" d="M682.5,704.6h-9.3l7.1-32.4c0.2-0.8,0.4-1.7,0.5-2.7c0.2-1,0.2-1.9,0.2-2.6c0-1.8-0.7-3.3-2-4.5
			c-1.4-1.2-3.1-1.8-5.1-1.8c-1.1,0-2.2,0.2-3.4,0.6c-1.2,0.4-2.3,0.9-3.4,1.5c-1.1,0.6-2.1,1.3-3,2.1c-0.9,0.8-1.8,1.7-2.5,2.5
			c-1.3,1.5-2.3,3.1-2.9,5c-0.6,1.9-1.2,4-1.6,6.1l-5.6,26.3h-9.3l6.1-29.2c0.5-2,0.8-3.8,1.1-5.4c0.3-1.6,0.4-2.8,0.4-3.3
			c0-1.9-0.6-3.4-1.6-4.5c-1.1-1.1-2.7-1.6-4.8-1.6c-2.2,0-4.3,0.6-6.5,1.9c-2.2,1.3-4,2.7-5.4,4.4c-1.7,1.7-2.9,3.3-3.5,4.9
			c-0.6,1.7-1.2,3.8-1.7,6.2l-5.7,26.7h-9.2l10.8-51.1h8.7l-1.6,6.6c2-2.2,4.2-4,6.8-5.3c3.1-1.6,6.4-2.4,10-2.4
			c3.2,0,6.1,0.7,8.4,2.1c2.1,1.3,3.6,3.4,4.4,6.3c1.9-2.4,4.2-4.3,7-5.8c3.1-1.7,6.4-2.5,9.9-2.5c1.8,0,3.5,0.2,5.3,0.6
			c1.7,0.4,3.3,1.1,4.7,2c1.4,0.9,2.5,2.1,3.3,3.6c0.8,1.5,1.2,3.3,1.2,5.5c0,1.5-0.2,3.2-0.5,5.1c-0.3,1.9-0.7,3.6-1,5L682.5,704.6
			z M674.5,703.6h7.2l6.2-29.6c0.3-1.4,0.6-3.1,1-4.9c0.3-1.8,0.5-3.5,0.5-5c0-2-0.4-3.7-1.1-5c-0.7-1.3-1.7-2.4-3-3.3
			c-1.3-0.8-2.7-1.5-4.4-1.9c-1.6-0.4-3.3-0.6-5-0.6c-3.3,0-6.4,0.8-9.4,2.4c-3,1.6-5.5,3.8-7.3,6.4l-0.7,0.9l-0.2-1.1
			c-0.7-3.1-2.1-5.4-4.2-6.7c-2.2-1.3-4.8-2-7.9-2c-3.4,0-6.6,0.8-9.5,2.3c-2.9,1.5-5.5,3.7-7.5,6.3l-0.3,0.4l-0.8-0.8l1.8-7.1h-6.6
			l-10.4,49.1h7.1l5.5-25.9c0.5-2.5,1.1-4.6,1.8-6.3c0.7-1.8,1.9-3.5,3.7-5.3c1.5-1.7,3.4-3.2,5.7-4.5c2.3-1.3,4.6-2,7-2
			c2.4,0,4.2,0.6,5.5,1.9c1.3,1.3,1.9,3,1.9,5.2c0,0.6-0.1,1.8-0.4,3.5c-0.3,1.7-0.7,3.5-1.1,5.5l-5.9,28h7.2l5.4-25.5
			c0.5-2.1,1-4.2,1.7-6.2c0.7-2,1.7-3.8,3.1-5.3c0.7-0.9,1.6-1.8,2.6-2.7c1-0.9,2.1-1.6,3.2-2.2c1.1-0.6,2.3-1.1,3.5-1.5
			c1.2-0.4,2.5-0.6,3.7-0.6c2.3,0,4.3,0.7,5.8,2.1c1.6,1.4,2.3,3.1,2.3,5.2c0,0.7-0.1,1.6-0.2,2.7c-0.2,1.1-0.3,2-0.5,2.8
			L674.5,703.6z"/>
	</g>
	<g>
		<path class="st0" d="M712.9,654l-1.8,7.5l0.2,0.2c2.1-2.7,4.7-4.9,7.7-6.4c3-1.6,6.2-2.4,9.7-2.4c3.2,0,5.9,0.7,8.1,2
			c2.3,1.4,3.7,3.7,4.5,7c1.9-2.7,4.4-4.9,7.5-6.5c3.1-1.6,6.3-2.5,9.6-2.5c1.7,0,3.5,0.2,5.1,0.6c1.7,0.4,3.2,1.1,4.5,1.9
			c1.3,0.9,2.4,2,3.1,3.4c0.8,1.4,1.2,3.2,1.2,5.2c0,1.5-0.2,3.2-0.5,5c-0.3,1.9-0.6,3.5-1,4.9l-6.3,30h-8.2l7-31.8
			c0.2-0.8,0.4-1.7,0.5-2.8c0.2-1.1,0.2-2,0.2-2.7c0-1.9-0.7-3.6-2.2-4.8c-1.5-1.3-3.3-1.9-5.5-1.9c-1.2,0-2.3,0.2-3.5,0.6
			c-1.2,0.4-2.3,0.9-3.4,1.5c-1.1,0.6-2.1,1.3-3.1,2.2c-1,0.8-1.8,1.7-2.5,2.6c-1.4,1.5-2.4,3.2-3,5.1c-0.6,1.9-1.2,4-1.6,6.1
			l-5.5,25.9h-8.2l6-28.6c0.5-1.9,0.8-3.7,1.1-5.4c0.3-1.7,0.4-2.8,0.4-3.4c0-2.1-0.6-3.7-1.8-4.8c-1.2-1.2-2.9-1.7-5.2-1.7
			c-2.3,0-4.5,0.6-6.7,1.9c-2.2,1.3-4.1,2.8-5.6,4.5c-1.7,1.7-2.9,3.4-3.6,5.1c-0.6,1.7-1.2,3.8-1.7,6.2l-5.6,26.3h-8.1l10.6-50.1
			H712.9z"/>
		<path class="st0" d="M765.1,704.6h-9.3l7.1-32.4c0.2-0.8,0.4-1.7,0.5-2.7c0.2-1,0.2-1.9,0.2-2.6c0-1.8-0.7-3.3-2-4.5
			c-1.4-1.2-3.1-1.8-5.1-1.8c-1.1,0-2.2,0.2-3.4,0.6c-1.2,0.4-2.3,0.9-3.4,1.5c-1.1,0.6-2.1,1.3-3,2.1c-0.9,0.8-1.8,1.7-2.5,2.5
			c-1.3,1.5-2.3,3.1-2.9,5c-0.6,1.9-1.2,4-1.6,6.1l-5.6,26.3h-9.3l6.1-29.2c0.5-2,0.8-3.8,1.1-5.4c0.3-1.6,0.4-2.8,0.4-3.3
			c0-1.9-0.6-3.4-1.6-4.5c-1.1-1.1-2.7-1.6-4.8-1.6c-2.2,0-4.3,0.6-6.5,1.9c-2.2,1.3-4,2.7-5.4,4.4c-1.7,1.7-2.9,3.3-3.5,4.9
			c-0.6,1.7-1.2,3.8-1.7,6.2l-5.7,26.7h-9.2l10.8-51.1h8.7l-1.6,6.6c2-2.2,4.2-4,6.8-5.3c3.1-1.6,6.4-2.4,10-2.4
			c3.2,0,6.1,0.7,8.4,2.1c2.1,1.3,3.6,3.4,4.4,6.3c1.9-2.4,4.2-4.3,7-5.8c3.1-1.7,6.5-2.5,9.9-2.5c1.8,0,3.5,0.2,5.3,0.6
			c1.7,0.4,3.3,1.1,4.7,2c1.4,0.9,2.5,2.1,3.3,3.6c0.8,1.5,1.2,3.3,1.2,5.5c0,1.5-0.2,3.2-0.5,5.1c-0.3,1.9-0.7,3.6-1,5L765.1,704.6
			z M757,703.6h7.2l6.2-29.6c0.3-1.4,0.6-3.1,1-4.9c0.3-1.8,0.5-3.5,0.5-5c0-2-0.4-3.7-1.1-5c-0.7-1.3-1.7-2.4-3-3.3
			c-1.3-0.8-2.7-1.5-4.4-1.9c-1.6-0.4-3.3-0.6-5-0.6c-3.3,0-6.4,0.8-9.4,2.4c-3,1.6-5.5,3.8-7.3,6.4l-0.7,0.9l-0.2-1.1
			c-0.7-3.1-2.1-5.4-4.2-6.7c-2.2-1.3-4.8-2-7.9-2c-3.4,0-6.6,0.8-9.5,2.3c-2.9,1.5-5.5,3.7-7.5,6.3l-0.3,0.4l-0.8-0.8l1.8-7.1h-6.6
			l-10.4,49.1h7.1l5.5-25.9c0.5-2.5,1.1-4.6,1.8-6.3c0.7-1.8,1.9-3.5,3.7-5.3c1.5-1.7,3.4-3.2,5.7-4.5c2.3-1.3,4.6-2,7-2
			c2.4,0,4.2,0.6,5.5,1.9c1.3,1.3,1.9,3,1.9,5.2c0,0.6-0.1,1.8-0.4,3.5c-0.3,1.7-0.7,3.5-1.1,5.5l-5.9,28h7.2l5.4-25.5
			c0.5-2.1,1-4.2,1.7-6.2c0.7-2,1.7-3.8,3.1-5.3c0.7-0.9,1.6-1.8,2.6-2.7c1-0.9,2.1-1.6,3.2-2.2c1.1-0.6,2.3-1.1,3.5-1.5
			c1.2-0.4,2.5-0.6,3.7-0.6c2.3,0,4.3,0.7,5.8,2.1c1.6,1.4,2.3,3.1,2.3,5.2c0,0.7-0.1,1.6-0.2,2.7c-0.2,1.1-0.3,2-0.5,2.8L757,703.6
			z"/>
	</g>
	<g>
		<path class="st0" d="M785.3,661.9c1.3-2,3-3.7,4.9-5.1c1.9-1.4,4.1-2.4,6.6-3c2.5-0.6,5-1,7.7-1c2.5,0,4.8,0.2,7,0.6
			c2.2,0.4,4.1,1.1,5.8,2c1.7,1,3,2.3,4,3.9c1,1.6,1.5,3.7,1.5,6.3c0,1.4-0.2,3-0.5,4.6c-0.4,1.6-0.7,3.1-1,4.5l-3.2,13.7
			c-0.2,1-0.5,2.2-0.8,3.5c-0.4,1.3-0.5,2.5-0.5,3.7c0,1.2,0.2,2,0.7,2.4c0.5,0.5,1,0.7,1.7,0.7c0.4,0,0.8-0.1,1.3-0.2
			c0.5-0.2,0.9-0.3,1.3-0.4l-1.3,6.1c-0.6,0.3-1.5,0.5-2.5,0.7c-1,0.2-1.9,0.3-2.6,0.3c-2.3,0-4-0.6-5.1-1.8
			c-1.2-1.2-1.6-2.9-1.4-5.1l-0.2-0.2c-1.7,2.3-3.9,4.1-6.5,5.3c-2.6,1.2-6,1.8-10.3,1.8c-2.1,0-4.1-0.2-6-0.7
			c-1.8-0.5-3.4-1.3-4.8-2.4c-1.4-1.1-2.4-2.6-3.2-4.4c-0.8-1.8-1.2-4-1.2-6.5c0-3.7,0.8-6.6,2.4-8.6c1.6-2.1,3.6-3.6,6.1-4.7
			c2.5-1.1,5.2-1.8,8.1-2.2c3-0.4,5.8-0.7,8.6-1c2.2-0.2,4.1-0.4,5.7-0.6c1.6-0.2,2.9-0.6,3.9-1.1c1-0.5,1.8-1.3,2.3-2.2
			c0.5-1,0.7-2.3,0.7-4c0-1.4-0.3-2.5-1-3.3c-0.6-0.8-1.5-1.5-2.4-2c-1-0.5-2.1-0.8-3.2-1c-1.2-0.2-2.3-0.3-3.4-0.3
			c-1.6,0-3.1,0.2-4.6,0.5c-1.5,0.3-2.9,0.9-4.1,1.6c-1.2,0.7-2.3,1.7-3.1,2.8c-0.8,1.1-1.4,2.5-1.6,4.1h-8.2
			C783.2,666.3,784,663.9,785.3,661.9z M787.7,696.3c1.8,1.2,3.9,1.7,6.3,1.7c6.5,0,11.2-2.2,14.1-6.6c1.4-1.9,2.3-3.9,2.8-6.1
			c0.5-2.2,1-4.5,1.6-6.8h-0.2c-1.2,0.8-2.6,1.4-4.4,1.8c-1.8,0.4-3.7,0.6-5.7,0.8c-2,0.2-4,0.4-6.1,0.7c-2,0.3-3.9,0.8-5.5,1.4
			c-1.6,0.6-2.9,1.6-4,2.8c-1,1.2-1.6,2.9-1.6,5C784.9,693.3,785.8,695.1,787.7,696.3z"/>
		<path class="st0" d="M815.4,705.7c-2.4,0-4.2-0.7-5.5-2c-1.1-1.1-1.6-2.6-1.6-4.4c-1.6,1.9-3.6,3.4-5.9,4.5
			c-2.6,1.3-6.2,1.9-10.5,1.9c-2.2,0-4.2-0.2-6.1-0.7c-1.9-0.5-3.6-1.4-5-2.5c-1.4-1.2-2.5-2.7-3.4-4.5c-0.8-1.8-1.3-4.1-1.3-6.7
			c0-3.8,0.8-6.8,2.5-8.9c1.6-2.1,3.7-3.8,6.3-4.9c2.5-1.1,5.3-1.8,8.3-2.2c2.9-0.4,5.8-0.7,8.6-1c2.2-0.2,4.1-0.4,5.6-0.6
			c1.5-0.2,2.8-0.6,3.8-1.1c0.9-0.5,1.6-1.1,2.1-2c0.4-0.9,0.7-2.2,0.7-3.7c0-1.2-0.3-2.2-0.9-3c-0.6-0.8-1.4-1.4-2.2-1.8
			c-0.9-0.5-2-0.8-3.1-1c-2.8-0.5-5.3-0.3-7.9,0.2c-1.5,0.3-2.8,0.8-4,1.5c-1.2,0.7-2.2,1.6-3,2.7c-0.8,1.1-1.3,2.4-1.6,3.9
			l-0.1,0.4h-9.2l0.1-0.6c0.4-2.8,1.3-5.3,2.6-7.4l0,0c1.4-2.1,3-3.8,5-5.2c2-1.4,4.2-2.4,6.8-3.1c2.5-0.7,5.1-1,7.8-1
			c2.5,0,4.8,0.2,7.1,0.6c2.2,0.4,4.3,1.1,6,2.1c1.7,1,3.2,2.4,4.2,4.1c1,1.7,1.6,3.9,1.6,6.5c0,1.4-0.2,3-0.5,4.7
			c-0.4,1.7-0.7,3.2-1,4.5l-3.2,13.7c-0.2,1-0.5,2.2-0.8,3.5c-0.3,1.2-0.5,2.4-0.5,3.6c0,1,0.2,1.7,0.5,2.1c0.6,0.6,1.4,0.7,2.5,0.3
			l2.1-0.7l-1.5,7.2l-0.2,0.1c-0.7,0.3-1.5,0.5-2.5,0.7C817.1,705.6,816.2,705.7,815.4,705.7z M808.7,697.2l0.8,0.8l0,0.2
			c-0.2,2,0.2,3.6,1.2,4.7c1.1,1.1,2.7,1.7,4.8,1.7c0.7,0,1.5-0.1,2.5-0.3c0.8-0.2,1.6-0.4,2.1-0.6l1-5l-0.5,0.2
			c-1.5,0.5-2.7,0.3-3.6-0.6c-0.6-0.6-0.8-1.5-0.8-2.8c0-1.2,0.2-2.5,0.5-3.8c0.4-1.3,0.6-2.4,0.8-3.4l3.2-13.7
			c0.3-1.4,0.7-2.9,1-4.5c0.3-1.6,0.5-3.1,0.5-4.5c0-2.4-0.5-4.4-1.4-6c-1-1.6-2.2-2.8-3.8-3.8c-1.6-0.9-3.5-1.6-5.7-2
			c-2.2-0.4-4.5-0.6-6.9-0.6c-2.6,0-5.1,0.3-7.5,1c-2.4,0.6-4.6,1.6-6.4,2.9c-1.9,1.3-3.5,3-4.8,5v0c-1.2,1.8-2,4-2.4,6.4h7.2
			c0.3-1.5,0.9-2.8,1.7-3.9c0.9-1.2,2-2.2,3.2-2.9c1.3-0.8,2.7-1.3,4.3-1.7c2.6-0.6,5.3-0.7,8.2-0.2c1.2,0.2,2.4,0.6,3.4,1.1
			c1,0.5,1.9,1.2,2.6,2.1c0.7,0.9,1.1,2.1,1.1,3.6c0,1.7-0.3,3.2-0.8,4.2c-0.5,1.1-1.4,1.9-2.5,2.5c-1.1,0.5-2.4,0.9-4.1,1.2
			c-1.6,0.2-3.5,0.4-5.7,0.6c-2.8,0.3-5.7,0.6-8.6,1c-2.9,0.4-5.6,1.1-8,2.1c-2.4,1-4.3,2.6-5.9,4.5c-1.5,2-2.3,4.8-2.3,8.3
			c0,2.5,0.4,4.6,1.2,6.3c0.8,1.7,1.8,3.1,3.1,4.2c1.3,1.1,2.8,1.9,4.6,2.3c1.8,0.5,3.8,0.7,5.8,0.7c4.2,0,7.5-0.6,10.1-1.8
			c2.5-1.2,4.6-2.9,6.3-5.2L808.7,697.2z M793.9,698.5c-2.4,0-4.6-0.6-6.5-1.8l0,0c-2-1.3-3-3.2-3-5.7c0.1-2.3,0.7-4,1.8-5.3
			c1.1-1.3,2.5-2.2,4.2-2.9c1.6-0.7,3.5-1.1,5.6-1.4c2-0.3,4.1-0.5,6.1-0.7c2-0.2,3.9-0.5,5.6-0.8c1.7-0.3,3.1-0.9,4.2-1.7l0.1-0.1
			h1l-0.2,0.6c-0.6,2.3-1.1,4.6-1.6,6.8c-0.5,2.3-1.5,4.4-2.8,6.3C805.5,696.2,800.6,698.5,793.9,698.5z M787.9,695.8
			c1.8,1.1,3.8,1.7,6,1.7c6.3,0,10.9-2.1,13.6-6.4c1.3-1.8,2.2-3.8,2.7-5.9c0.4-1.8,0.9-3.8,1.3-5.7c-1.1,0.6-2.3,1-3.8,1.3
			c-1.8,0.4-3.7,0.6-5.7,0.8c-2,0.2-4,0.4-6,0.7c-2,0.3-3.8,0.7-5.4,1.4c-1.5,0.6-2.8,1.5-3.8,2.6c-1,1.1-1.5,2.7-1.5,4.7
			C785.4,693.2,786.2,694.8,787.9,695.8L787.9,695.8z"/>
	</g>
	<g>
		<path class="st0" d="M846,654l-1.6,7.6h0.2c2.1-2.9,4.7-5.1,7.8-6.5c3.2-1.5,6.5-2.2,10-2.2c4.7,0,8.2,1,10.5,3.1
			c2.3,2.1,3.4,5.3,3.4,9.8c0,1.1-0.1,2.5-0.4,4.3c-0.3,1.7-0.6,3.6-1.1,5.5l-6.1,28.6h-8.2l6.4-29.3c0.1-0.5,0.2-1.1,0.3-1.8
			c0.1-0.7,0.3-1.4,0.4-2.1c0.1-0.7,0.2-1.5,0.3-2.1c0.1-0.7,0.1-1.2,0.1-1.7c0-2.4-0.8-4.1-2.5-5.3c-1.7-1.1-3.7-1.7-6.2-1.7
			c-2.3,0-4.5,0.5-6.7,1.6c-2.2,1.1-4.1,2.5-5.7,4.2c-1.5,1.3-2.6,2.9-3.5,4.7c-0.8,1.8-1.5,3.8-2,5.8l-5.8,27.7h-8.1L838,654H846z"
			/>
		<path class="st0" d="M869.2,704.6H860l6.5-29.9c0.1-0.5,0.2-1.1,0.3-1.8c0.1-0.7,0.3-1.4,0.4-2.1c0.1-0.7,0.2-1.4,0.3-2.1
			c0.1-0.6,0.1-1.2,0.1-1.6c0-2.2-0.8-3.8-2.3-4.9c-1.6-1.1-3.6-1.6-5.9-1.6c-2.2,0-4.4,0.5-6.5,1.6c-2.2,1.1-4,2.4-5.5,4.1
			c-1.5,1.3-2.6,2.8-3.4,4.6c-0.8,1.8-1.5,3.7-2,5.7l-5.9,28.1h-9.2l10.7-51.1h9l-1.3,6.4c1.9-2.3,4.3-4.1,7-5.3
			c3.2-1.5,6.6-2.2,10.2-2.2c4.8,0,8.5,1.1,10.8,3.2c2.4,2.2,3.6,5.6,3.6,10.2c0,1.1-0.1,2.6-0.4,4.3c-0.3,1.8-0.6,3.6-1.1,5.6
			L869.2,704.6z M861.2,703.6h7.2l6-28.2c0.4-1.9,0.8-3.8,1.1-5.5c0.3-1.7,0.4-3.1,0.4-4.2c0-4.3-1.1-7.5-3.3-9.4
			c-2.2-2-5.6-3-10.2-3c-3.4,0-6.7,0.7-9.8,2.1c-3.1,1.4-5.6,3.6-7.7,6.4l-0.1,0.2h-1.1l1.6-7.6h-6.9l-10.3,49.1h7.1l5.7-27.3
			c0.5-2,1.2-4,2.1-5.9c0.9-1.9,2.1-3.5,3.6-4.9c1.5-1.7,3.5-3.1,5.8-4.2c2.3-1.1,4.6-1.7,7-1.7c2.5,0,4.7,0.6,6.5,1.8
			c1.8,1.2,2.7,3.1,2.7,5.7c0,0.5-0.1,1.1-0.1,1.8c-0.1,0.7-0.2,1.4-0.3,2.1c-0.1,0.7-0.3,1.5-0.4,2.1c-0.1,0.7-0.2,1.3-0.3,1.8
			L861.2,703.6z"/>
	</g>
	<g>
		<path class="st0" d="M913.7,704.1l1.5-7.6H915c-2.1,2.9-4.7,5.1-7.8,6.5c-3.2,1.4-6.5,2.1-10,2.1c-4.7,0-8.2-1-10.5-3.1
			c-2.3-2-3.4-5.3-3.4-9.7c0-1.1,0.1-2.5,0.4-4.3c0.3-1.7,0.6-3.6,1.1-5.5l6.1-28.6h8.2l-6.4,29.3c-0.1,0.5-0.3,1-0.4,1.7
			c-0.1,0.7-0.3,1.4-0.4,2.2c-0.1,0.7-0.2,1.5-0.3,2.1c-0.1,0.7-0.1,1.2-0.1,1.7c0,2.4,0.8,4.2,2.5,5.3c1.7,1.1,3.7,1.7,6.2,1.7
			c2.3,0,4.5-0.5,6.4-1.4c2-0.9,3.7-2.1,5.3-3.6c1.6-1.5,2.9-3.3,3.9-5.2c1.1-2,1.8-4,2.3-6.1L924,654h8.2l-10.6,50.1H913.7z"/>
		<path class="st0" d="M897.2,705.7c-4.8,0-8.5-1.1-10.8-3.2c-2.4-2.1-3.6-5.5-3.6-10.1c0-1.1,0.1-2.6,0.4-4.3
			c0.3-1.8,0.6-3.6,1.1-5.6l6.2-29h9.3l-6.5,29.9c-0.1,0.5-0.3,1-0.4,1.7c-0.1,0.7-0.3,1.4-0.4,2.2c-0.1,0.7-0.2,1.4-0.3,2.1
			c-0.1,0.7-0.1,1.2-0.1,1.6c0,2.2,0.8,3.8,2.3,4.9c1.6,1.1,3.6,1.6,5.9,1.6c2.2,0,4.3-0.4,6.2-1.3c1.9-0.9,3.6-2.1,5.1-3.5
			c1.5-1.5,2.8-3.2,3.8-5.1c1-1.9,1.8-3.9,2.2-5.9l5.9-28.1h9.3L922,704.6h-9l1.3-6.4c-1.9,2.3-4.3,4.1-7,5.3
			C904.2,704.9,900.8,705.7,897.2,705.7z M891.2,654.5l-6,28.2c-0.5,1.9-0.8,3.8-1.1,5.5c-0.3,1.7-0.4,3.1-0.4,4.2
			c0,4.3,1.1,7.4,3.3,9.4c2.2,1.9,5.6,2.9,10.2,2.9c3.4,0,6.7-0.7,9.8-2.1c3.1-1.4,5.6-3.5,7.6-6.3l0.1-0.2h1.1l-1.5,7.6h6.9
			l10.4-49.1h-7.2l-5.7,27.3c-0.5,2.1-1.2,4.2-2.3,6.2c-1.1,2-2.4,3.8-4,5.4c-1.6,1.6-3.4,2.8-5.4,3.7c-2,0.9-4.3,1.4-6.7,1.4
			c-2.5,0-4.7-0.6-6.5-1.8c-1.8-1.2-2.7-3.1-2.7-5.7c0-0.5,0-1.1,0.1-1.7c0.1-0.7,0.2-1.4,0.3-2.2c0.1-0.7,0.3-1.5,0.4-2.2
			c0.1-0.7,0.3-1.3,0.4-1.8l6.3-28.6H891.2z"/>
	</g>
	<g>
		<path class="st0" d="M944.9,685.9c0,1.9,0.4,3.7,1.1,5.2c0.7,1.5,1.7,2.8,2.9,3.8c1.2,1,2.6,1.8,4.2,2.3c1.6,0.5,3.2,0.8,4.8,0.8
			c3.7,0,6.7-0.8,9.1-2.5c2.4-1.6,4.2-4,5.3-7.1h8.2c-0.6,2.8-1.7,5.2-3.1,7.3c-1.4,2.1-3.1,3.8-5.1,5.2c-2,1.4-4.2,2.4-6.7,3.1
			c-2.5,0.7-5,1.1-7.8,1.1c-4.1,0-7.6-0.6-10.3-1.9c-2.7-1.3-4.9-2.9-6.5-4.8c-1.6-2-2.7-4.1-3.4-6.5c-0.6-2.4-1-4.6-1-6.8
			c0-4.8,0.7-9.2,2.1-13.1c1.4-4,3.3-7.4,5.6-10.2c2.4-2.8,5.1-5,8.2-6.6c3.1-1.6,6.4-2.3,9.8-2.3c7.4,0,12.7,1.9,16.1,5.8
			c3.4,3.9,5.1,9.3,5.1,16.4c0,1.3-0.1,2.5-0.3,3.7c-0.2,1.2-0.4,2.1-0.5,2.8h-37.7C945,682.9,944.9,684.4,944.9,685.9z
			 M975.1,669.1c-0.4-1.7-1-3.2-1.9-4.6c-0.9-1.3-2.2-2.4-3.7-3.2c-1.6-0.8-3.5-1.2-5.7-1.2c-2.4,0-4.5,0.4-6.4,1.1
			c-1.9,0.7-3.6,1.8-5,3.1c-1.4,1.3-2.6,2.8-3.6,4.5c-1,1.7-1.7,3.5-2.3,5.5h29.1C975.5,672.5,975.4,670.8,975.1,669.1z"/>
		<path class="st0" d="M957.9,705.7c-4.2,0-7.7-0.7-10.5-1.9c-2.8-1.3-5.1-3-6.7-5c-1.7-2-2.8-4.3-3.5-6.7c-0.7-2.4-1-4.7-1-7
			c0-4.8,0.7-9.3,2.1-13.3c1.4-4,3.3-7.5,5.7-10.4c2.4-2.9,5.2-5.1,8.4-6.7c3.2-1.6,6.6-2.4,10.1-2.4c7.5,0,13,2,16.5,6
			c3.5,4,5.2,9.6,5.2,16.7c0,1.3-0.1,2.6-0.3,3.8c-0.2,1.2-0.4,2.1-0.5,2.8l-0.1,0.4h-37.7c-0.2,1.3-0.2,2.6-0.2,3.9
			c0,1.9,0.3,3.5,1,5c0.7,1.4,1.6,2.7,2.8,3.6c1.2,1,2.5,1.7,4,2.2c1.5,0.5,3.1,0.8,4.7,0.8c3.6,0,6.5-0.8,8.8-2.4
			c2.3-1.6,4-3.9,5.1-6.9l0.1-0.3h9.2l-0.1,0.6c-0.7,2.8-1.7,5.3-3.2,7.5c-1.5,2.1-3.2,3.9-5.3,5.4c-2,1.4-4.3,2.5-6.8,3.2
			C963.3,705.3,960.6,705.7,957.9,705.7z M962.4,653.3c-3.3,0-6.6,0.8-9.6,2.3c-3.1,1.5-5.8,3.7-8.1,6.5c-2.3,2.8-4.2,6.2-5.5,10.1
			c-1.4,3.9-2.1,8.3-2.1,13c0,2.1,0.3,4.4,1,6.7c0.6,2.3,1.7,4.4,3.3,6.3c1.6,1.9,3.7,3.5,6.4,4.7c2.7,1.2,6.1,1.8,10.1,1.8
			c2.6,0,5.2-0.4,7.6-1c2.4-0.7,4.6-1.7,6.5-3.1c1.9-1.3,3.6-3.1,5-5.1c1.3-1.9,2.2-4.1,2.9-6.5h-7.3c-1.2,3-3,5.4-5.4,7
			c-2.5,1.7-5.6,2.6-9.4,2.6c-1.7,0-3.4-0.3-5-0.9c-1.6-0.6-3.1-1.4-4.3-2.4c-1.3-1-2.3-2.4-3-4c-0.7-1.6-1.1-3.4-1.1-5.4
			c0-1.5,0.1-3,0.3-4.4l0.1-0.4h37.7c0.1-0.6,0.3-1.4,0.4-2.4c0.2-1.1,0.3-2.3,0.3-3.6c0-6.9-1.7-12.3-5-16
			C974.9,655.2,969.6,653.3,962.4,653.3z M975.9,674.8h-30.2l0.2-0.6c0.6-2,1.4-3.8,2.4-5.6c1-1.8,2.2-3.3,3.7-4.6
			c1.5-1.3,3.2-2.4,5.1-3.1c2-0.8,4.2-1.1,6.6-1.1c2.3,0,4.3,0.4,5.9,1.3c1.6,0.8,2.9,2,3.9,3.4c1,1.4,1.7,3,2,4.7l0,0
			c0.4,1.8,0.5,3.5,0.3,5.3L975.9,674.8z M947,673.8h27.9c0.1-1.5,0-3.1-0.4-4.6c-0.3-1.6-1-3.1-1.9-4.4c-0.9-1.3-2.1-2.3-3.6-3
			c-1.5-0.8-3.3-1.2-5.5-1.2c-2.3,0-4.4,0.4-6.3,1.1c-1.8,0.7-3.5,1.7-4.8,3c-1.4,1.2-2.5,2.7-3.5,4.4
			C948.3,670.5,947.6,672.1,947,673.8z"/>
	</g>
	<g>
		<path class="st0" d="M1010,634.9l-14.5,69.2h-8.1l14.4-69.2H1010z"/>
		<path class="st0" d="M995.9,704.6h-9.2l14.6-70.2h9.3L995.9,704.6z M988,703.6h7.1l14.3-68.2h-7.2L988,703.6z"/>
	</g>
	<g>
		<path class="st0" d="M599.7,749l12.5,69.2h-9.5l-3.2-20.8h-29.2l-12.1,20.8h-10.2l41.6-69.2H599.7z M598.4,789.6l-5.1-32.5H593
			l-18.5,32.5H598.4z"/>
		<path class="st0" d="M612.8,818.7h-10.5l-3.2-20.8h-28.5l-12.1,20.8h-11.3l42.2-70.2h10.8L612.8,818.7z M603.2,817.7h8.5
			l-12.3-68.2h-9.4l-41,68.2h9l12.1-20.8H600L603.2,817.7z M599,790.1h-25.3l19.1-33.5h0.9L599,790.1z M575.4,789.1h22.4l-4.9-30.7
			L575.4,789.1z"/>
	</g>
	<g>
		<path class="st0" d="M654.3,818.2l1.7-7.2h-0.2c-2.5,3.2-5,5.4-7.6,6.5c-2.6,1.1-5.6,1.7-9,1.7c-3.2,0-6-0.5-8.4-1.5
			c-2.5-1-4.5-2.4-6.2-4.2c-1.7-1.8-2.9-3.9-3.8-6.4c-0.8-2.5-1.3-5.3-1.3-8.3c0-3.8,0.6-7.6,1.9-11.4c1.3-3.8,3.1-7.2,5.4-10.2
			c2.4-3,5.3-5.5,8.7-7.4c3.5-1.9,7.4-2.9,11.8-2.9c1.6,0,3.1,0.1,4.7,0.4c1.6,0.3,3.1,0.8,4.6,1.5c1.5,0.7,2.7,1.6,3.8,2.7
			c1.1,1.1,1.9,2.5,2.4,4.2h0.2l5.3-26.7h8.1L662,818.2H654.3z M630.9,808.5c2,2.4,5.3,3.6,9.8,3.6c3.1,0,5.9-0.8,8.3-2.4
			c2.5-1.6,4.5-3.6,6.2-6.1c1.6-2.5,2.9-5.2,3.8-8.1c0.9-2.9,1.3-5.7,1.3-8.3c0-3.7-1.1-6.8-3.2-9.3c-2.2-2.5-5.3-3.7-9.4-3.7
			c-3.3,0-6.2,0.8-8.6,2.3c-2.5,1.5-4.5,3.5-6.2,5.9c-1.7,2.4-2.9,5-3.8,7.9c-0.8,2.9-1.3,5.8-1.3,8.5
			C627.8,802.9,628.8,806.1,630.9,808.5z"/>
		<path class="st0" d="M639.3,819.8c-3.2,0-6.1-0.5-8.6-1.5c-2.5-1-4.7-2.5-6.4-4.3c-1.7-1.8-3-4.1-3.9-6.6
			c-0.9-2.6-1.3-5.4-1.3-8.5c0-3.8,0.6-7.7,1.9-11.5c1.3-3.8,3.1-7.3,5.5-10.4c2.4-3.1,5.4-5.6,8.9-7.5c3.5-1.9,7.6-2.9,12-2.9
			c1.6,0,3.2,0.1,4.8,0.4c1.7,0.3,3.2,0.8,4.7,1.5c1.5,0.7,2.8,1.6,4,2.8c0.8,0.9,1.5,1.9,2,3.1l5.1-25.8h9.2l-14.8,70.2h-8.8l1.4-6
			c-2.2,2.5-4.4,4.3-6.7,5.3C645.8,819.2,642.7,819.8,639.3,819.8z M647.4,767.4c-4.3,0-8.2,0.9-11.5,2.8c-3.4,1.9-6.3,4.3-8.6,7.3
			c-2.3,3-4.1,6.4-5.3,10.1s-1.9,7.5-1.9,11.2c0,3,0.4,5.7,1.2,8.2c0.8,2.4,2,4.5,3.7,6.3c1.6,1.7,3.6,3.1,6,4
			c2.4,1,5.2,1.5,8.2,1.5c3.3,0,6.2-0.6,8.8-1.7c2.5-1.1,5-3.2,7.4-6.4l0.1-0.2h1.1l-1.7,7.2h6.7l14.4-68.2h-7.1l-5.3,26.7h-1
			l-0.1-0.4c-0.5-1.6-1.3-2.9-2.3-4c-1.1-1.1-2.3-2-3.7-2.6c-1.4-0.7-2.9-1.1-4.5-1.4C650.5,767.6,648.9,767.4,647.4,767.4z
			 M640.7,812.6c-4.7,0-8.1-1.3-10.2-3.8c-2.1-2.5-3.2-5.8-3.2-10c0-2.8,0.4-5.7,1.3-8.7c0.9-2.9,2.1-5.7,3.9-8.1
			c1.7-2.4,3.8-4.5,6.3-6c2.5-1.6,5.5-2.4,8.9-2.4c4.2,0,7.5,1.3,9.7,3.9c2.2,2.5,3.4,5.8,3.4,9.6c0,2.6-0.4,5.5-1.3,8.4
			c-0.9,3-2.2,5.7-3.8,8.2c-1.7,2.5-3.8,4.6-6.3,6.2C646.8,811.8,643.9,812.6,640.7,812.6z M647.7,774.7c-3.2,0-6,0.7-8.4,2.2
			c-2.4,1.5-4.4,3.4-6.1,5.7c-1.6,2.3-2.9,5-3.7,7.8c-0.8,2.8-1.2,5.7-1.2,8.4c0,3.9,1,7.1,2.9,9.4l0,0c1.9,2.3,5.1,3.4,9.5,3.4
			c3,0,5.7-0.8,8.1-2.3c2.4-1.6,4.4-3.6,6-6c1.6-2.4,2.9-5.1,3.7-8c0.9-2.9,1.3-5.6,1.3-8.1c0-3.6-1.1-6.6-3.1-9
			C654.6,775.9,651.6,774.7,647.7,774.7z"/>
	</g>
	<g>
		<path class="st0" d="M684.6,800c0,1.9,0.4,3.7,1.1,5.2c0.7,1.5,1.7,2.8,2.9,3.8c1.2,1,2.6,1.8,4.2,2.3c1.6,0.5,3.2,0.8,4.8,0.8
			c3.7,0,6.7-0.8,9.1-2.5c2.4-1.6,4.2-4,5.3-7.1h8.2c-0.6,2.8-1.7,5.2-3.1,7.3c-1.4,2.1-3.1,3.8-5.1,5.2c-2,1.4-4.2,2.4-6.7,3.1
			c-2.5,0.7-5,1.1-7.8,1.1c-4.1,0-7.6-0.6-10.3-1.9c-2.7-1.3-4.9-2.9-6.5-4.8c-1.6-2-2.7-4.1-3.4-6.5c-0.6-2.4-1-4.6-1-6.8
			c0-4.8,0.7-9.2,2.1-13.1c1.4-4,3.3-7.4,5.6-10.2c2.4-2.8,5.1-5,8.2-6.6c3.1-1.6,6.4-2.3,9.8-2.3c7.4,0,12.7,1.9,16.1,5.8
			s5.1,9.3,5.1,16.4c0,1.3-0.1,2.5-0.3,3.7c-0.2,1.2-0.4,2.1-0.5,2.8h-37.7C684.7,797.1,684.6,798.5,684.6,800z M714.8,783.2
			c-0.4-1.7-1-3.2-1.9-4.6c-0.9-1.3-2.2-2.4-3.7-3.2c-1.6-0.8-3.5-1.2-5.7-1.2c-2.4,0-4.5,0.4-6.4,1.1c-1.9,0.7-3.6,1.8-5,3.1
			c-1.4,1.3-2.6,2.8-3.6,4.5c-1,1.7-1.7,3.5-2.3,5.5h29.1C715.3,786.6,715.2,784.9,714.8,783.2z"/>
		<path class="st0" d="M697.6,819.8c-4.2,0-7.7-0.7-10.5-1.9c-2.8-1.3-5.1-3-6.7-5c-1.7-2-2.8-4.3-3.5-6.7c-0.7-2.4-1-4.7-1-7
			c0-4.8,0.7-9.3,2.1-13.3c1.4-4,3.3-7.5,5.7-10.4c2.4-2.9,5.2-5.1,8.4-6.7c3.2-1.6,6.6-2.4,10.1-2.4c7.5,0,13,2,16.5,6
			c3.5,4,5.2,9.6,5.2,16.7c0,1.3-0.1,2.6-0.3,3.8c-0.2,1.2-0.4,2.1-0.5,2.8l-0.1,0.4h-37.7c-0.2,1.3-0.2,2.6-0.2,3.9
			c0,1.9,0.3,3.5,1,5c0.7,1.4,1.6,2.7,2.8,3.6c1.2,1,2.5,1.7,4,2.2c1.5,0.5,3.1,0.8,4.7,0.8c3.6,0,6.5-0.8,8.8-2.4
			c2.3-1.6,4-3.9,5.1-6.9l0.1-0.3h9.2l-0.1,0.6c-0.7,2.8-1.7,5.3-3.2,7.5c-1.5,2.1-3.2,3.9-5.3,5.4c-2,1.4-4.3,2.5-6.8,3.2
			C703,819.4,700.3,819.8,697.6,819.8z M702.1,767.4c-3.3,0-6.6,0.8-9.6,2.3c-3.1,1.5-5.8,3.7-8.1,6.5c-2.3,2.8-4.2,6.2-5.5,10.1
			c-1.4,3.9-2.1,8.3-2.1,13c0,2.1,0.3,4.4,1,6.7c0.6,2.3,1.7,4.4,3.3,6.3c1.6,1.9,3.7,3.5,6.4,4.7c2.7,1.2,6.1,1.8,10.1,1.8
			c2.6,0,5.2-0.4,7.6-1c2.4-0.7,4.6-1.7,6.5-3.1c1.9-1.3,3.6-3.1,5-5.1c1.3-1.9,2.2-4.1,2.9-6.5h-7.3c-1.2,3-3,5.4-5.4,7
			c-2.5,1.7-5.6,2.6-9.4,2.6c-1.7,0-3.4-0.3-5-0.9c-1.6-0.6-3.1-1.4-4.3-2.4c-1.3-1-2.3-2.4-3-4c-0.7-1.6-1.1-3.4-1.1-5.4
			c0-1.5,0.1-3,0.3-4.4l0.1-0.4h37.7c0.1-0.6,0.3-1.4,0.4-2.4c0.2-1.1,0.3-2.3,0.3-3.6c0-6.9-1.7-12.3-5-16
			C714.6,769.3,709.3,767.4,702.1,767.4z M715.6,788.9h-30.2l0.2-0.6c0.6-2,1.4-3.8,2.4-5.6c1-1.8,2.2-3.3,3.7-4.6
			c1.5-1.3,3.2-2.4,5.1-3.1s4.2-1.1,6.6-1.1c2.3,0,4.3,0.4,5.9,1.3c1.6,0.8,2.9,2,3.9,3.4c1,1.4,1.7,3,2,4.7l0,0
			c0.4,1.8,0.5,3.5,0.3,5.3L715.6,788.9z M686.7,787.9h27.9c0.1-1.5,0-3.1-0.4-4.6c-0.3-1.6-1-3.1-1.9-4.4c-0.9-1.3-2.1-2.3-3.6-3
			c-1.5-0.8-3.3-1.2-5.5-1.2c-2.3,0-4.4,0.4-6.3,1.1c-1.8,0.7-3.5,1.7-4.8,3c-1.4,1.2-2.5,2.7-3.5,4.4
			C688,784.6,687.3,786.2,686.7,787.9z"/>
	</g>
	<g>
		<path class="st0" d="M740.1,831.2c-1,1.5-2.2,2.7-3.4,3.8c-1.2,1.1-2.6,1.9-4.2,2.5c-1.5,0.6-3.4,0.9-5.4,0.9c-1,0-2-0.1-3-0.3
			c-1-0.2-1.9-0.5-2.7-0.9l1.5-6.7c0.6,0.4,1.4,0.7,2.3,1c0.9,0.3,1.7,0.4,2.3,0.4c1.9,0,3.4-0.5,4.6-1.5c1.2-1,2.2-2.3,3.2-3.9
			l5-8.2l-8.8-50.1h8.8l5.8,39.8h0.2l21-39.8h9l-33.1,58.5C742.2,828.3,741.2,829.8,740.1,831.2z"/>
		<path class="st0" d="M727.1,839c-1,0-2-0.1-3.1-0.4c-1.1-0.2-2-0.6-2.8-1l-0.3-0.2l1.7-7.7l0.6,0.4c0.6,0.4,1.3,0.7,2.2,0.9
			c0.9,0.2,1.6,0.4,2.2,0.4c1.7,0,3.2-0.5,4.2-1.4c1.1-1,2.2-2.2,3.1-3.8l4.9-8.1l-8.9-50.5h9.8l5.7,39l20.6-39h10.2l-33.6,59.3
			c-1.1,1.7-2.1,3.2-3.1,4.6l0,0c-1.1,1.5-2.2,2.8-3.5,3.9c-1.3,1.1-2.7,2-4.3,2.6C731.2,838.6,729.3,839,727.1,839z M722,836.9
			c0.7,0.3,1.4,0.5,2.2,0.7c1,0.2,2,0.3,2.9,0.3c2,0,3.8-0.3,5.2-0.9c1.5-0.6,2.8-1.4,4-2.4c1.2-1,2.3-2.3,3.3-3.7l0,0
			c1-1.4,2.1-3,3.1-4.6l32.7-57.8h-7.9l-21,39.8h-0.9l-5.8-39.8h-7.8l8.7,49.7l-5.1,8.4c-1,1.7-2.1,3-3.3,4
			c-1.3,1.1-2.9,1.6-4.9,1.6c-0.7,0-1.5-0.1-2.5-0.4c-0.7-0.2-1.3-0.4-1.8-0.7L722,836.9z"/>
	</g>
	<g>
		<path class="st0" d="M783.3,800c0,1.9,0.4,3.7,1.1,5.2c0.7,1.5,1.7,2.8,2.9,3.8c1.2,1,2.6,1.8,4.2,2.3c1.6,0.5,3.2,0.8,4.8,0.8
			c3.7,0,6.7-0.8,9.1-2.5c2.4-1.6,4.2-4,5.3-7.1h8.2c-0.6,2.8-1.7,5.2-3.1,7.3c-1.4,2.1-3.1,3.8-5.1,5.2c-2,1.4-4.2,2.4-6.7,3.1
			c-2.5,0.7-5,1.1-7.8,1.1c-4.1,0-7.6-0.6-10.3-1.9c-2.7-1.3-4.9-2.9-6.5-4.8c-1.6-2-2.7-4.1-3.4-6.5c-0.6-2.4-1-4.6-1-6.8
			c0-4.8,0.7-9.2,2.1-13.1c1.4-4,3.3-7.4,5.6-10.2c2.4-2.8,5.1-5,8.2-6.6c3.1-1.6,6.4-2.3,9.8-2.3c7.4,0,12.7,1.9,16.1,5.8
			s5.1,9.3,5.1,16.4c0,1.3-0.1,2.5-0.3,3.7c-0.2,1.2-0.4,2.1-0.5,2.8h-37.7C783.4,797.1,783.3,798.5,783.3,800z M813.4,783.2
			c-0.4-1.7-1-3.2-1.9-4.6c-0.9-1.3-2.2-2.4-3.7-3.2c-1.6-0.8-3.5-1.2-5.7-1.2c-2.4,0-4.5,0.4-6.4,1.1c-1.9,0.7-3.6,1.8-5,3.1
			c-1.4,1.3-2.6,2.8-3.6,4.5c-1,1.7-1.7,3.5-2.3,5.5h29.1C813.9,786.6,813.8,784.9,813.4,783.2z"/>
		<path class="st0" d="M796.2,819.8c-4.2,0-7.7-0.7-10.5-1.9c-2.8-1.3-5.1-3-6.7-5c-1.7-2-2.8-4.3-3.5-6.7c-0.7-2.4-1-4.7-1-7
			c0-4.8,0.7-9.3,2.1-13.3c1.4-4,3.3-7.5,5.7-10.4c2.4-2.9,5.2-5.1,8.4-6.7c3.2-1.6,6.6-2.4,10.1-2.4c7.5,0,13,2,16.5,6
			c3.5,4,5.2,9.6,5.2,16.7c0,1.3-0.1,2.6-0.3,3.8c-0.2,1.2-0.4,2.1-0.5,2.8l-0.1,0.4H784c-0.2,1.3-0.2,2.6-0.2,3.9
			c0,1.9,0.3,3.5,1,5c0.7,1.4,1.6,2.7,2.8,3.6c1.2,1,2.5,1.7,4,2.2c1.5,0.5,3.1,0.8,4.7,0.8c3.6,0,6.5-0.8,8.8-2.4
			c2.3-1.6,4-3.9,5.1-6.9l0.1-0.3h9.2l-0.1,0.6c-0.7,2.8-1.7,5.3-3.2,7.5c-1.5,2.1-3.2,3.9-5.3,5.4c-2,1.4-4.3,2.5-6.8,3.2
			C801.6,819.4,799,819.8,796.2,819.8z M800.8,767.4c-3.3,0-6.6,0.8-9.6,2.3c-3.1,1.5-5.8,3.7-8.1,6.5c-2.3,2.8-4.2,6.2-5.5,10.1
			c-1.4,3.9-2.1,8.3-2.1,13c0,2.1,0.3,4.4,1,6.7c0.6,2.3,1.7,4.4,3.3,6.3c1.6,1.9,3.7,3.5,6.4,4.7c2.7,1.2,6.1,1.8,10.1,1.8
			c2.6,0,5.2-0.4,7.6-1c2.4-0.7,4.6-1.7,6.5-3.1c1.9-1.3,3.6-3.1,5-5.1c1.3-1.9,2.2-4.1,2.9-6.5H811c-1.2,3-3,5.4-5.4,7
			c-2.5,1.7-5.6,2.6-9.4,2.6c-1.7,0-3.4-0.3-5-0.9c-1.6-0.6-3.1-1.4-4.3-2.4c-1.3-1-2.3-2.4-3-4c-0.7-1.6-1.1-3.4-1.1-5.4
			c0-1.5,0.1-3,0.3-4.4l0.1-0.4h37.7c0.1-0.6,0.3-1.4,0.4-2.4c0.2-1.1,0.3-2.3,0.3-3.6c0-6.9-1.7-12.3-5-16
			C813.3,769.3,808,767.4,800.8,767.4z M814.2,788.9H784l0.2-0.6c0.6-2,1.4-3.8,2.4-5.6c1-1.8,2.2-3.3,3.7-4.6
			c1.5-1.3,3.2-2.4,5.1-3.1s4.2-1.1,6.6-1.1c2.3,0,4.3,0.4,5.9,1.3c1.6,0.8,2.9,2,3.9,3.4c1,1.4,1.7,3,2,4.7l0,0
			c0.4,1.8,0.5,3.5,0.3,5.3L814.2,788.9z M785.4,787.9h27.9c0.1-1.5,0-3.1-0.4-4.6c-0.3-1.6-1-3.1-1.9-4.4c-0.9-1.3-2.1-2.3-3.6-3
			c-1.5-0.8-3.3-1.2-5.5-1.2c-2.3,0-4.4,0.4-6.3,1.1c-1.8,0.7-3.5,1.7-4.8,3c-1.4,1.2-2.5,2.7-3.5,4.4
			C786.6,784.6,785.9,786.2,785.4,787.9z"/>
	</g>
	<g>
		<path class="st0" d="M843.9,768.1l-1.8,7.5l0.2,0.2c2.1-2.7,4.7-4.9,7.7-6.4c3-1.6,6.2-2.4,9.7-2.4c3.2,0,5.9,0.7,8.1,2
			c2.3,1.4,3.7,3.7,4.5,7c1.9-2.7,4.4-4.9,7.5-6.5c3.1-1.6,6.3-2.5,9.6-2.5c1.7,0,3.5,0.2,5.1,0.6c1.7,0.4,3.2,1.1,4.5,1.9
			c1.3,0.9,2.4,2,3.1,3.4c0.8,1.4,1.2,3.2,1.2,5.2c0,1.5-0.2,3.2-0.5,5c-0.3,1.9-0.6,3.5-1,4.9l-6.3,30h-8.2l7-31.8
			c0.2-0.8,0.4-1.7,0.5-2.8c0.2-1.1,0.2-2,0.2-2.7c0-1.9-0.7-3.6-2.2-4.8c-1.5-1.3-3.3-1.9-5.5-1.9c-1.2,0-2.3,0.2-3.5,0.6
			c-1.2,0.4-2.3,0.9-3.4,1.5c-1.1,0.6-2.1,1.3-3.1,2.2c-1,0.8-1.8,1.7-2.5,2.6c-1.4,1.5-2.4,3.2-3,5.1c-0.6,1.9-1.2,4-1.6,6.1
			l-5.5,25.9h-8.2l6-28.6c0.5-1.9,0.8-3.7,1.1-5.4c0.3-1.7,0.4-2.8,0.4-3.4c0-2.1-0.6-3.7-1.8-4.8c-1.2-1.2-2.9-1.7-5.2-1.7
			c-2.3,0-4.5,0.6-6.7,1.9c-2.2,1.3-4.1,2.8-5.6,4.5c-1.7,1.7-2.9,3.4-3.6,5.1c-0.6,1.7-1.2,3.8-1.7,6.3l-5.6,26.3h-8.1l10.6-50.1
			H843.9z"/>
		<path class="st0" d="M896.1,818.7h-9.3l7.1-32.4c0.2-0.8,0.4-1.7,0.5-2.7c0.2-1,0.2-1.9,0.2-2.6c0-1.8-0.7-3.3-2-4.5
			c-1.4-1.2-3.1-1.8-5.1-1.8c-1.1,0-2.2,0.2-3.4,0.6c-1.2,0.4-2.3,0.9-3.4,1.5c-1.1,0.6-2.1,1.3-3,2.1c-0.9,0.8-1.8,1.7-2.5,2.5
			c-1.3,1.5-2.3,3.1-2.9,5c-0.6,1.9-1.2,4-1.6,6.1l-5.6,26.3h-9.3l6.1-29.2c0.5-2,0.8-3.8,1.1-5.4c0.3-1.6,0.4-2.8,0.4-3.3
			c0-1.9-0.6-3.4-1.6-4.5c-1.1-1.1-2.7-1.6-4.8-1.6c-2.2,0-4.3,0.6-6.5,1.9c-2.2,1.3-4,2.7-5.4,4.4c-1.7,1.7-2.9,3.3-3.5,4.9
			c-0.6,1.7-1.2,3.8-1.7,6.2l-5.7,26.7h-9.2l10.8-51.1h8.7l-1.6,6.6c2-2.2,4.2-4,6.8-5.3c3.1-1.6,6.4-2.4,10-2.4
			c3.2,0,6.1,0.7,8.4,2.1c2.1,1.3,3.6,3.4,4.4,6.3c1.9-2.4,4.2-4.3,7-5.8c3.1-1.7,6.4-2.5,9.9-2.5c1.8,0,3.5,0.2,5.3,0.6
			c1.7,0.4,3.3,1.1,4.7,2c1.4,0.9,2.5,2.1,3.3,3.6c0.8,1.5,1.2,3.3,1.2,5.5c0,1.5-0.2,3.2-0.5,5.1c-0.3,1.9-0.7,3.6-1,5L896.1,818.7
			z M888,817.7h7.2l6.2-29.6c0.3-1.4,0.6-3.1,1-4.9c0.3-1.8,0.5-3.5,0.5-5c0-2-0.4-3.7-1.1-5s-1.7-2.4-3-3.3
			c-1.3-0.8-2.7-1.5-4.4-1.9c-1.6-0.4-3.3-0.6-5-0.6c-3.3,0-6.4,0.8-9.4,2.4c-3,1.6-5.5,3.8-7.3,6.4l-0.7,0.9l-0.2-1.1
			c-0.7-3.1-2.1-5.4-4.2-6.7c-2.2-1.3-4.8-2-7.9-2c-3.4,0-6.6,0.8-9.5,2.3c-2.9,1.5-5.5,3.7-7.5,6.3l-0.3,0.4l-0.8-0.8l1.8-7.1h-6.6
			l-10.4,49.1h7.1l5.5-25.9c0.5-2.5,1.1-4.6,1.8-6.3c0.7-1.8,1.9-3.5,3.7-5.3c1.5-1.7,3.4-3.2,5.7-4.5c2.3-1.3,4.6-2,7-2
			c2.4,0,4.2,0.6,5.5,1.9c1.3,1.3,1.9,3,1.9,5.2c0,0.6-0.1,1.8-0.4,3.5c-0.3,1.7-0.7,3.5-1.1,5.5l-5.9,28h7.2l5.4-25.5
			c0.5-2.1,1-4.2,1.7-6.2c0.7-2,1.7-3.8,3.1-5.3c0.7-0.9,1.6-1.8,2.6-2.7c1-0.9,2.1-1.6,3.2-2.2c1.1-0.6,2.3-1.1,3.5-1.5
			c1.2-0.4,2.5-0.6,3.7-0.6c2.3,0,4.3,0.7,5.8,2.1c1.6,1.4,2.3,3.1,2.3,5.2c0,0.7-0.1,1.6-0.2,2.7c-0.2,1.1-0.3,2-0.5,2.8L888,817.7
			z"/>
	</g>
	<g>
		<path class="st0" d="M912.2,786.6c1.3-3.8,3.1-7.2,5.5-10.1s5.4-5.2,8.8-7c3.5-1.7,7.4-2.6,11.8-2.6c6.8,0,12,1.8,15.5,5.3
			c3.6,3.5,5.3,8.7,5.3,15.5c0,4.1-0.6,8-1.8,11.8c-1.2,3.8-3,7.2-5.4,10.1c-2.4,2.9-5.3,5.3-8.7,7c-3.4,1.7-7.3,2.6-11.7,2.6
			c-3.3,0-6.2-0.5-8.9-1.6c-2.6-1-4.8-2.5-6.6-4.3c-1.8-1.8-3.2-4-4.2-6.6c-1-2.6-1.5-5.3-1.5-8.4
			C910.3,794.4,910.9,790.4,912.2,786.6z M922,808.3c2.3,2.5,5.7,3.8,10.3,3.8c3,0,5.7-0.8,8-2.3c2.3-1.6,4.2-3.5,5.8-5.9
			c1.6-2.4,2.8-4.9,3.6-7.7c0.8-2.8,1.2-5.4,1.2-7.8c0-1.9-0.3-3.8-0.8-5.5c-0.5-1.7-1.3-3.2-2.4-4.5c-1.1-1.3-2.5-2.3-4.1-3
			c-1.6-0.7-3.6-1.1-5.9-1.1c-3.2,0-5.9,0.8-8.3,2.3c-2.4,1.6-4.4,3.5-6,5.9c-1.6,2.4-2.8,5-3.6,7.8c-0.8,2.8-1.2,5.6-1.2,8.1
			C918.5,802.5,919.7,805.8,922,808.3z"/>
		<path class="st0" d="M931.4,819.8c-3.3,0-6.4-0.5-9.1-1.6c-2.7-1.1-5-2.5-6.8-4.4c-1.8-1.9-3.3-4.2-4.3-6.8
			c-1-2.6-1.5-5.5-1.5-8.6c0-4.1,0.6-8.1,1.9-12l0,0c1.3-3.9,3.2-7.3,5.6-10.2c2.5-2.9,5.5-5.3,9-7.1c3.5-1.8,7.5-2.7,12-2.7
			c6.9,0,12.2,1.8,15.9,5.4c3.6,3.6,5.5,8.9,5.5,15.8c0,4.1-0.6,8.1-1.9,12c-1.2,3.9-3.1,7.3-5.5,10.3c-2.4,3-5.4,5.4-8.9,7.2
			C939.9,818.9,935.9,819.8,931.4,819.8z M912.7,786.8c-1.2,3.7-1.9,7.7-1.9,11.7c0,3,0.5,5.7,1.4,8.2c0.9,2.5,2.3,4.6,4.1,6.4
			c1.8,1.8,3.9,3.2,6.5,4.2c2.5,1,5.5,1.5,8.7,1.5c4.3,0,8.2-0.9,11.5-2.6c3.3-1.7,6.2-4,8.6-6.9c2.3-2.9,4.1-6.2,5.3-10
			c1.2-3.7,1.8-7.7,1.8-11.7c0-6.6-1.7-11.7-5.2-15.1c-3.4-3.4-8.5-5.1-15.2-5.1c-4.3,0-8.2,0.9-11.5,2.6c-3.4,1.7-6.3,4-8.7,6.9
			C915.7,779.7,913.9,783,912.7,786.8L912.7,786.8z M932.3,812.6c-4.6,0-8.2-1.3-10.6-3.9c-2.4-2.6-3.6-6.1-3.6-10.3
			c0-2.6,0.4-5.4,1.2-8.3c0.8-2.9,2.1-5.6,3.7-7.9c1.6-2.4,3.7-4.4,6.1-6c2.5-1.6,5.4-2.4,8.6-2.4c2.3,0,4.4,0.4,6.1,1.2
			c1.7,0.8,3.1,1.8,4.3,3.1c1.1,1.3,2,2.9,2.5,4.7c0.5,1.8,0.8,3.7,0.8,5.7c0,2.5-0.4,5.2-1.2,8c-0.8,2.8-2,5.5-3.7,7.8
			c-1.6,2.4-3.6,4.4-5.9,6C938.2,811.8,935.4,812.6,932.3,812.6z M937.7,774.7c-3.1,0-5.8,0.8-8.1,2.2c-2.3,1.5-4.3,3.4-5.9,5.7
			c-1.6,2.3-2.8,4.9-3.6,7.7c-0.8,2.8-1.2,5.5-1.2,8c0,4,1.1,7.2,3.4,9.6l0,0c2.2,2.4,5.5,3.6,9.9,3.6c2.9,0,5.5-0.8,7.7-2.2
			c2.2-1.5,4.1-3.4,5.7-5.7c1.5-2.3,2.7-4.8,3.5-7.6c0.8-2.7,1.2-5.3,1.2-7.7c0-1.9-0.3-3.7-0.8-5.4c-0.5-1.7-1.3-3.1-2.3-4.3
			c-1-1.2-2.4-2.2-3.9-2.9C941.8,775.1,939.9,774.7,937.7,774.7z"/>
	</g>
</g>
</svg>
